<svg width="3000" height="300" xmlns="http://www.w3.org/2000/svg">

    <g>
        <title>Layer 0</title>
        <rect
                x="0"
                y="0"
                width="3000"
                height="300"
                stroke="blue"
                fill="#121010"
                fill-opacity="0.9"
                stroke-opacity="0.8"
                stroke-width="0" />


        <title>Layer 2</title>
        <path d="M 0 200 C 77.675 207.75456063804236, -41.824999999999996 43.260621288918536, 2100.0743809743976 -926.3292912075387 S 3899.9256190256024 239.65760066514676, 6000 30" stroke="#F21101" fill="transparent" stroke-width="1"/>
        <path d="M 0 200 C 94.27313379881885 209.41160904513967, -30.76245666090245 11.153052052595172, 2113.0203187036313 -947.0973936040291 S 3906.9796812963687 238.95336952741667, 6000 30" stroke="#F21101" fill="transparent" stroke-width="1"/>
        <path d="M 0 200 C 111.40990144759353 211.12243110979966, 0.01005306668041328 -13.96775200735371, 2139.0026281808937 -957.2819547751785 S 3920.9973718191063 237.55393558903393, 6000 30" stroke="#F21101" fill="transparent" stroke-width="1"/>
        <path d="M 0 200 C 136.52753699849575 213.63001048493607, 46.48517238542537 -37.84328795980909, 2178.000169789643 -959.046339848941 S 3941.999830210357 235.45718840985253, 6000 30" stroke="#F21101" fill="transparent" stroke-width="1"/>
        <path d="M 0 200 C 175.18959546973406 217.48977587671925, 105.66714090091244 -64.66231616592971, 2230.0034363488917 -953.9074408399504 S 3969.9965636511083 232.6621788555118, 6000 30" stroke="#F21101" fill="transparent" stroke-width="1"/>
        <path d="M 0 200 C 783.858026446754 278.25522494621924, 777.9226011440555 -295.30155651846263, 2880.0929752918437 -724.9794795844301 S 4319.907024708156 197.7294220077198, 6000 30" stroke="#F21101" fill="transparent" stroke-width="1"/>
        <path d="M 0 200 C 798.4781924111954 279.71480606639307, 790.0502040862795 -326.4608374604478, 2893.0254195636867 -745.7411128728431 S 4326.974580436314 197.023843772036, 6000 30" stroke="#F21101" fill="transparent" stroke-width="1"/>
        <path d="M 0 200 C 825.6222902396486 282.4246940944033, 815.43415140942 -356.3794111817791, 2919.0032935419576 -755.9235475524997 S 4340.996706458042 195.6239670226344, 6000 30" stroke="#F21101" fill="transparent" stroke-width="1"/>
        <path d="M 0 200 C 865.2859460079516 286.3844523664567, 854.0767983034108 -387.2286807115095, 2958.000213325444 -757.6876345073504 S 4361.999786674556 193.52715776451242, 6000 30" stroke="#F21101" fill="transparent" stroke-width="1"/>
        <path d="M 0 200 C 917.5463990234223 291.60179194650215, 905.9365543720035 -420.5671265461512, 3010.00433278557 -752.5491444008223 S 4389.99566721443 190.73223335818037, 6000 30" stroke="#F21101" fill="transparent" stroke-width="1"/>
        <path d="M 0 200 C 1561.932586773514 355.9330667096183, 1558.9593763527232 -668.330371677348, 3660.123964388028 -523.6356103347938 S 4739.876035611972 155.80248076340283, 6000 30" stroke="#F21101" fill="transparent" stroke-width="1"/>
        <path d="M 0 200 C 1575.7688357612135 357.31438671963656, 1571.5090884362698 -699.1138228005377, 3673.033939886007 -544.3864715191955 S 4746.966060113993 155.0946593932564, 6000 30" stroke="#F21101" fill="transparent" stroke-width="1"/>
        <path d="M 0 200 C 1602.4019989192982 359.9732663938206, 1597.1681544280702 -728.7874413923362, 3699.0044099933875 -554.5653565940627 S 4760.9955900066125 153.69404349012734, 6000 30" stroke="#F21101" fill="transparent" stroke-width="1"/>
        <path d="M 0 200 C 1641.8281786955893 363.9093166262198, 1635.9386730100673 -759.5228588666905, 3738.000286885927 -556.3289435603593 S 4781.9997131140735 151.59713011663897, 6000 30" stroke="#F21101" fill="transparent" stroke-width="1"/>
        <path d="M 0 200 C 1694.0753803655991 369.12533327917276, 1687.8055644185238 -792.8549516678975, 3790.005861997456 -551.1911513302892 S 4809.994138002544 148.8023510329599, 6000 30" stroke="#F21101" fill="transparent" stroke-width="1"/>
        <path d="M 0 200 C 2341.2888343015265 433.7388636853909, 2339.3060122991783 -1041.973660413016, 4440.185935150666 -322.3065944872842 S 5159.814064849334 113.87863252470142, 6000 30" stroke="#F21101" fill="transparent" stroke-width="1"/>
        <path d="M 0 200 C 2354.8518899829455 435.0929098742381, 2352.002828470722 -1072.6261356881992, 4453.0510515606165 -343.0359490792465 S 5166.9489484393835 113.1663327185294, 6000 30" stroke="#F21101" fill="transparent" stroke-width="1"/>
        <path d="M 0 200 C 2381.2879217223112 437.732109245363, 2377.768042149525 -1102.2052444434023, 4479.006671513158 -353.2077146106315 S 5180.993328486842 111.76423427370507, 6000 30" stroke="#F21101" fill="transparent" stroke-width="1"/>
        <path d="M 0 200 C 2420.5949203365017 441.6562612151498, 2416.6027352034225 -1132.8835234249252, 4518.0004378784515 -354.97028973626647 S 5201.9995621215485 109.66711019907076, 6000 30" stroke="#F21101" fill="transparent" stroke-width="1"/>
        <path d="M 0 200 C 2472.790204275496 446.8670947436309, 2468.4975823131945 -1166.1907255399767, 4570.009059419634 -349.8339580423734 S 5229.990940580366 106.8726352508725, 6000 30" stroke="#F21101" fill="transparent" stroke-width="1"/>
        <path d="M 0 200 C 3120.966742152982 511.57677311025253, 3119.4794465330097 -1415.7711613224983, 5220.37174693954 -121.0369511904783 S 5579.62825306046 71.96714775877003, 6000 30" stroke="#F21101" fill="transparent" stroke-width="1"/>
        <path d="M 0 200 C 3134.3910770285593 512.9169703270926, 3132.2509585230837 -1446.3571303006252, 5233.10295872367 -141.7021084850852 S 5586.89704127633 71.24147979629757, 6000 30" stroke="#F21101" fill="transparent" stroke-width="1"/>
        <path d="M 0 200 C 3160.723361216632 515.5458122257031, 3158.0720362679676 -1475.8864998301708, 5259.01369397937 -151.8523551465122 S 5600.98630602063 69.83490035883244, 6000 30" stroke="#F21101" fill="transparent" stroke-width="1"/>
        <path d="M 0 200 C 3199.962463585921 519.4631858813839, 3196.943288838351 -1506.5322276179124, 5298.000924409188 -153.61179677776158 S 5621.999075590812 67.73712377942866, 6000 30" stroke="#F21101" fill="transparent" stroke-width="1"/>
        <path d="M 0 200 C 3252.1210608402707 524.6703568527915, 3248.8578903167772 -1539.8218411994187, 5350.019930272989 -148.4804435933335 S 5649.980069727011 64.94368553363708, 6000 30" stroke="#F21101" fill="transparent" stroke-width="1"/>



        <path d="M 0 10 C 2.6 10.259566883281753, -1.4 15.246506400370928, 2100.0074666533924 1020.7972107731505 S 3899.9925333466076 239.6509203798582, 6000 30" stroke="#C82BF2" fill="transparent" stroke-width="0.8" stroke-opacity="0.7"/>
        <path d="M 0 10 C 13.000649983750813 11.297899306507375, 12.999650008749562 16.032843620664455, 2113.011940935837 1013.243377088192 S 3906.988059064163 238.95253314623392, 6000 30" stroke="#C82BF2" fill="transparent" stroke-width="0.8" stroke-opacity="0.7"/>
        <path d="M 0 10 C 39.05336964974981 13.898831323706066, 38.97126249628856 25.58318277864034, 2139.0157752650653 1003.5932578230886 S 3920.9842247349347 237.5552481073657, 6000 30" stroke="#C82BF2" fill="transparent" stroke-width="0.8" stroke-opacity="0.7"/>
        <path d="M 0 10 C 78.073142716878 17.79430858578136, 77.96061546014262 42.23225849756204, 2178.018896913362 991.4688181103163 S 3941.981103086638 235.45905800259735, 6000 30" stroke="#C82BF2" fill="transparent" stroke-width="0.8" stroke-opacity="0.7"/>
        <path d="M 0 10 C 130.07159567602798 22.98549180504267, 129.9614484821388 65.72104481408783, 2230.0214106848034 976.6055081956258 S 3969.9785893151966 232.66397329487782, 6000 30" stroke="#C82BF2" fill="transparent" stroke-width="0.8" stroke-opacity="0.7"/>
        <path d="M 0 10 C 780.0043333212964 87.8704975947964, 779.9976666731482 387.9539976161748, 2880.0093333074074 819.4393794809918 S 4319.990666692593 197.7210717426384, 6000 30" stroke="#C82BF2" fill="transparent" stroke-width="0.8" stroke-opacity="0.7"/>
        <path d="M 0 10 C 793.0000106557377 89.16790046473342, 792.9999942622951 389.98445722176575, 2893.0149386362336 811.8860880485538 S 4326.985061363766 197.02279742523874, 6000 30" stroke="#C82BF2" fill="transparent" stroke-width="0.8" stroke-opacity="0.7"/>
        <path d="M 0 10 C 819.0025431468451 91.76382212479085, 818.9986306132373 399.51073536638825, 2919.0197689602737 802.2364462887997 S 4340.980231039726 195.62561181993559, 6000 30" stroke="#C82BF2" fill="transparent" stroke-width="0.8" stroke-opacity="0.7"/>
        <path d="M 0 10 C 858.0066524297408 95.65773561776858, 857.9964179224473 416.1523014671177, 2958.0237422126975 790.1124148567947 S 4361.9762577873025 193.52950673371686, 6000 30" stroke="#C82BF2" fill="transparent" stroke-width="0.8" stroke-opacity="0.7"/>
        <path d="M 0 10 C 910.0102307126597 100.84943051561316, 909.9944911547218 439.6435449947519, 3010.0269959968746 775.2494597231085 S 4389.973004003125 190.7344959039971, 6000 30" stroke="#C82BF2" fill="transparent" stroke-width="0.8" stroke-opacity="0.7"/>
        <path d="M 0 10 C 1560.0021666651621 165.74034627463777, 1559.9988333341435 761.904878977169, 3660.012444382991 618.0821447963139 S 4739.987555617009 155.79134734027554, 6000 30" stroke="#C82BF2" fill="transparent" stroke-width="0.8" stroke-opacity="0.7"/>
        <path d="M 0 10 C 1573.000005371901 167.0379649217559, 1572.999997107438 763.9363747998377, 3673.0199459306305 610.5297624596017 S 4746.9800540693695 155.0932623288787, 6000 30" stroke="#C82BF2" fill="transparent" stroke-width="0.8" stroke-opacity="0.7"/>
        <path d="M 0 10 C 1599.0013025889004 169.63376326017863, 1598.9992986059767 773.4620607225058, 3699.0264701776955 600.8809328098062 S 4760.973529822304 153.69624583369867, 6000 30" stroke="#C82BF2" fill="transparent" stroke-width="0.8" stroke-opacity="0.7"/>
        <path d="M 0 10 C 1638.003484615857 173.5274843486112, 1637.9981236683848 790.1027028475186, 3738.0319289954964 588.7576135957822 S 4781.968071004503 151.60028905654718, 6000 30" stroke="#C82BF2" fill="transparent" stroke-width="0.8" stroke-opacity="0.7"/>
        <path d="M 0 10 C 1690.0055088672664 178.71902410218064, 1689.9970336868566 813.5932013327593, 3790.036523741486 573.8953013534352 S 4809.963476258514 148.80541209962675, 6000 30" stroke="#C82BF2" fill="transparent" stroke-width="0.8" stroke-opacity="0.7"/>
        <path d="M 0 10 C 2340.0014444439985 243.6103391573574, 2339.9992222224623 1135.856452837177, 4440.018666459264 416.72640160481694 S 5159.981333540736 113.86193351974066, 6000 30" stroke="#C82BF2" fill="transparent" stroke-width="0.8" stroke-opacity="0.7"/>
        <path d="M 0 10 C 2353.0000035911603 244.90802972850446, 2352.9999980662983 1137.8882940573835, 4453.030002400874 409.1758575744995 S 5166.969997599126 113.1642313089947, 6000 30" stroke="#C82BF2" fill="transparent" stroke-width="0.8" stroke-opacity="0.7"/>
        <path d="M 0 10 C 2379.000875510768 247.50378560803546, 2378.999528571125 1147.4137760816202, 4479.040044076601 399.52871426983444 S 5180.959955923399 111.76756597073577, 6000 30" stroke="#C82BF2" fill="transparent" stroke-width="0.8" stroke-opacity="0.7"/>
        <path d="M 0 10 C 2418.0023605475844 251.39743711356098, 2417.998728935916 1164.05408405176, 4518.048732880699 387.40694359373106 S 5201.951267119301 109.67193165415213, 6000 30" stroke="#C82BF2" fill="transparent" stroke-width="0.8" stroke-opacity="0.7"/>
        <path d="M 0 10 C 2470.003769228239 256.5889154125988, 2469.997970415564 1187.54428741666, 4570.0564445796945 372.5461256982576 S 5229.9435554203055 106.87736587329977, 6000 30" stroke="#C82BF2" fill="transparent" stroke-width="0.8" stroke-opacity="0.7"/>
        <path d="M 0 10 C 3120.0010833331453 321.4803680909531, 3119.9994166667684 1509.80819982269, 5220.037331674222 215.3766239717859 S 5579.962668325778 71.9337619402545, 6000 30" stroke="#C82BF2" fill="transparent" stroke-width="0.8" stroke-opacity="0.7"/>
        <path d="M 0 10 C 3133.0000026970956 322.77809462377286, 3132.999998547718 1511.8402137400244, 5233.060509974023 207.83175747042276 S 5586.939490025977 71.23724199258797, 6000 30" stroke="#C82BF2" fill="transparent" stroke-width="0.8" stroke-opacity="0.7"/>
        <path d="M 0 10 C 3159.0006593353223 325.3738290110281, 3158.999644973288 1521.3655925528692, 5259.082189280604 198.19019354319812 S 5600.917810719396 69.8417384787789, 6000 30" stroke="#C82BF2" fill="transparent" stroke-width="0.8" stroke-opacity="0.7"/>
        <path d="M 0 10 C 3198.001784804644 329.26744461970213, 3197.9990389513455 1538.005728137169, 5298.102869669737 186.07417193920836 S 5621.897130330263 67.7473013231002, 6000 30" stroke="#C82BF2" fill="transparent" stroke-width="0.8" stroke-opacity="0.7"/>
        <path d="M 0 10 C 3250.0028646143846 334.4588900864329, 3249.998457515331 1561.495773832954, 5350.124160604092 171.21986427596133 S 5649.875839395908 64.95409120370931, 6000 30" stroke="#C82BF2" fill="transparent" stroke-width="0.8" stroke-opacity="0.7"/>


    </g>
</svg>